<svg width="580" height="400" xmlns="http://www.w3.org/2000/svg">
 <!-- Created with Method Draw - http://github.com/duopixel/Method-Draw/ -->

 <g>
  <title>background</title>
  <rect fill="#fff" id="canvas_background" height="402" width="582" y="-1" x="-1"/>
 </g>
 <g>
  <title>Layer 1</title>
  <g id="svg_6">
   <path id="svg_5" d="m146.051974,148.385481c-1.831054,0 -3.147922,0.968899 -3.908487,2.185736c-0.680203,1.088257 -0.963203,2.350532 -1.018406,3.456082c-2.075737,1.026408 -4.375203,2.061225 -6.226602,3.119167c-0.971138,0.554945 -1.817831,1.113146 -2.455173,1.713054c-0.637343,0.599772 -1.107585,1.275227 -1.107585,2.072075c0,0.339084 0.165473,0.615438 0.35197,0.81821c0.186767,0.202773 0.410563,0.360243 0.665418,0.50727c0.509644,0.294054 1.152208,0.539144 1.858995,0.751139c1.050008,0.315077 2.225952,0.549317 3.248427,0.649482c-1.016981,1.752387 -2.370402,3.361952 -3.55679,4.904175c-1.371053,1.782362 -2.56802,3.491685 -2.56802,5.390556c0,0.271268 -0.002984,0.48306 0.021023,0.695801c0.024075,0.212742 0.085178,0.478312 0.299073,0.688748c0.213962,0.210503 0.47587,0.267063 0.689222,0.290256c0.213352,0.023397 0.428263,0.020616 0.703939,0.020616l7.564425,0c0.549113,0 0.951199,0.033366 1.364814,-0.232611c0.413683,-0.265842 0.564507,-0.629002 0.859239,-1.171536l0.005968,-0.010851l0.005426,-0.011258s0.659383,-1.340738 1.446126,-2.671169c0.393337,-0.665148 0.82038,-1.327582 1.191813,-1.797011c0.185818,-0.234646 0.3597,-0.420735 0.48489,-0.525851c0.038249,-0.03201 0.05561,-0.037978 0.080295,-0.051541c0.024618,0.013563 0.042047,0.019531 0.080295,0.051541c0.12519,0.105116 0.299073,0.291205 0.484891,0.525851c0.371433,0.469429 0.798475,1.131863 1.191813,1.797011c0.786675,1.330431 1.446126,2.671102 1.446126,2.671102l0.005425,0.011189l0.005968,0.010851c0.294732,0.542535 0.444201,0.903524 0.855171,1.170112c0.410834,0.26652 0.812038,0.233968 1.35342,0.233968l7.597724,0c0.271267,0 0.482856,0.002916 0.694715,-0.020616c0.211792,-0.023533 0.474583,-0.082059 0.686307,-0.293783c0.211588,-0.211724 0.270182,-0.474514 0.293647,-0.686306c0.0236,-0.211725 0.020752,-0.423449 0.020752,-0.694716c0,-1.898871 -1.196968,-3.608195 -2.568021,-5.390625c-1.186319,-1.542154 -2.53974,-3.151719 -3.556789,-4.904174c1.022474,-0.100233 2.198418,-0.334337 3.248426,-0.649414c0.706787,-0.211928 1.349352,-0.457086 1.858995,-0.751072c0.254856,-0.147026 0.478652,-0.304497 0.665284,-0.507269c0.186699,-0.202773 0.352105,-0.479126 0.352105,-0.818211c0,-0.796847 -0.470242,-1.472303 -1.107585,-2.072075c-0.637343,-0.599908 -1.484036,-1.158108 -2.455173,-1.713053c-1.851399,-1.057943 -4.150865,-2.092828 -6.226603,-3.119168c-0.055202,-1.105414 -0.33827,-2.367825 -1.018405,-3.455946c-0.760566,-1.216905 -2.077433,-2.185736 -3.908488,-2.185736z" fill="#ffff00"/>
  </g>
 </g>
</svg>