<svg width="580" height="400" xmlns="http://www.w3.org/2000/svg">
 <!-- Created with Method Draw - http://github.com/duopixel/Method-Draw/ -->

 <g>
  <title>background</title>
  <rect fill="#fff" id="canvas_background" height="402" width="582" y="-1" x="-1"/>
 </g>
 <g>
  <title>Layer 1</title>
  <g id="svg_6">
   <path id="svg_5" d="m168.701506,145.394032c-1.83106,0 -3.14792,0.9689 -3.90849,2.18574c-0.6802,1.08825 -0.9632,2.35053 -1.01841,3.45608c-2.07573,1.0264 -4.3752,2.06122 -6.2266,3.11916c-0.97114,0.55495 -1.81783,1.11315 -2.45517,1.71306c-0.63734,0.59977 -1.10759,1.27523 -1.10759,2.07207c0,0.33909 0.16548,0.61544 0.35197,0.81821c0.18677,0.20278 0.41057,0.36025 0.66542,0.50727c0.50965,0.29406 1.15221,0.53915 1.859,0.75114c1.05001,0.31508 2.22595,0.54932 3.24842,0.64948c-1.01698,1.75239 -2.3704,3.36196 -3.55679,4.90418c-1.37105,1.78236 -2.56802,3.49168 -2.56802,5.39056c0,0.27126 -0.00298,0.48306 0.02103,0.6958c0.02407,0.21274 0.08517,0.47831 0.29907,0.68874c0.21396,0.21051 0.47587,0.26707 0.68922,0.29026c0.21335,0.0234 0.42827,0.02062 0.70394,0.02062l7.56443,0c0.54911,0 0.95119,0.03336 1.36481,-0.23262c0.41368,-0.26584 0.56451,-0.629 0.85924,-1.17153l0.00597,-0.01085l0.00542,-0.01126s0.65939,-1.34074 1.44613,-2.67117c0.39334,-0.66515 0.82038,-1.32758 1.19181,-1.79701c0.18582,-0.23465 0.3597,-0.42073 0.48489,-0.52585c0.03825,-0.03201 0.05561,-0.03798 0.0803,-0.05154c0.02461,0.01356 0.04204,0.01953 0.08029,0.05154c0.12519,0.10512 0.29907,0.2912 0.48489,0.52585c0.37144,0.46943 0.79848,1.13186 1.19182,1.79701c0.78667,1.33043 1.44612,2.6711 1.44612,2.6711l0.00543,0.01119l0.00596,0.01085c0.29474,0.54254 0.44421,0.90353 0.85518,1.17012c0.41083,0.26652 0.81203,0.23396 1.35342,0.23396l7.59772,0c0.27127,0 0.48286,0.00292 0.69471,-0.02061c0.2118,-0.02354 0.47459,-0.08206 0.68631,-0.29379c0.21159,-0.21172 0.27018,-0.47451 0.29365,-0.6863c0.0236,-0.21173 0.02075,-0.42345 0.02075,-0.69472c0,-1.89887 -1.19697,-3.60819 -2.56802,-5.39062c-1.18632,-1.54216 -2.53974,-3.15172 -3.55679,-4.90418c1.02247,-0.10023 2.19842,-0.33433 3.24843,-0.64941c0.70678,-0.21193 1.34935,-0.45709 1.85899,-0.75107c0.25486,-0.14703 0.47865,-0.3045 0.66529,-0.50727c0.18669,-0.20277 0.3521,-0.47913 0.3521,-0.81821c0,-0.79685 -0.47024,-1.47231 -1.10758,-2.07208c-0.63735,-0.59991 -1.48404,-1.15811 -2.45518,-1.71305c-1.8514,-1.05794 -4.15086,-2.09283 -6.2266,-3.11917c-0.0552,-1.10541 -0.33827,-2.36782 -1.01841,-3.45594c-0.76056,-1.21691 -2.07743,-2.18574 -3.90848,-2.18574z" fill="#3f7f00"/>
  </g>
 </g>
</svg>