<svg width="580" height="400" xmlns="http://www.w3.org/2000/svg">
 <!-- Created with Method Draw - http://github.com/duopixel/Method-Draw/ -->

 <g>
  <title>background</title>
  <rect fill="#fff" id="canvas_background" height="402" width="582" y="-1" x="-1"/>
 </g>
 <g>
  <title>Layer 1</title>
  <g id="svg_6">
   <path id="svg_5" d="m219.128762,175.308506c-1.831055,0 -3.147922,0.968899 -3.908488,2.185736c-0.680203,1.088257 -0.963202,2.350532 -1.018405,3.456082c-2.075738,1.026408 -4.375203,2.061225 -6.226603,3.119167c-0.971137,0.554946 -1.81783,1.113146 -2.455173,1.713054c-0.637342,0.599772 -1.107584,1.275227 -1.107584,2.072075c0,0.339084 0.165473,0.615438 0.351969,0.81821c0.186768,0.202773 0.410563,0.360243 0.665419,0.50727c0.509643,0.294054 1.152208,0.539144 1.858995,0.75114c1.050008,0.315077 2.225952,0.549316 3.248426,0.649481c-1.016981,1.752387 -2.370402,3.361952 -3.556789,4.904175c-1.371053,1.782362 -2.56802,3.491685 -2.56802,5.390557c0,0.271267 -0.002984,0.483059 0.021023,0.6958c0.024075,0.212742 0.085178,0.478312 0.299072,0.688748c0.213962,0.210504 0.475871,0.267063 0.689223,0.290256c0.213351,0.023397 0.428263,0.020616 0.703938,0.020616l7.564426,0c0.549113,0 0.951199,0.033366 1.364814,-0.232611c0.413682,-0.265842 0.564507,-0.629001 0.859239,-1.171536l0.005968,-0.010851l0.005425,-0.011257s0.659383,-1.340739 1.446126,-2.67117c0.393338,-0.665147 0.820381,-1.327582 1.191813,-1.79701c0.185818,-0.234647 0.359701,-0.420736 0.484891,-0.525852c0.038248,-0.03201 0.055609,-0.037978 0.080295,-0.051541c0.024617,0.013563 0.042046,0.019531 0.080295,0.051541c0.12519,0.105116 0.299072,0.291205 0.48489,0.525852c0.371433,0.469428 0.798476,1.131863 1.191813,1.79701c0.786676,1.330431 1.446127,2.671102 1.446127,2.671102l0.005425,0.01119l0.005968,0.01085c0.294732,0.542535 0.4442,0.903524 0.85517,1.170112c0.410834,0.26652 0.812039,0.233968 1.353421,0.233968l7.597723,0c0.271268,0 0.482856,0.002916 0.694716,-0.020616c0.211792,-0.023533 0.474582,-0.082059 0.686306,-0.293783c0.211589,-0.211724 0.270182,-0.474514 0.293647,-0.686306c0.0236,-0.211724 0.020752,-0.423449 0.020752,-0.694716c0,-1.898871 -1.196967,-3.608195 -2.56802,-5.390624c-1.18632,-1.542155 -2.539741,-3.15172 -3.55679,-4.904175c1.022475,-0.100233 2.198419,-0.334337 3.248427,-0.649414c0.706787,-0.211928 1.349351,-0.457085 1.858995,-0.751071c0.254856,-0.147027 0.478651,-0.304498 0.665283,-0.50727c0.1867,-0.202773 0.352105,-0.479126 0.352105,-0.81821c0,-0.796848 -0.470242,-1.472304 -1.107585,-2.072076c-0.637342,-0.599908 -1.484035,-1.158108 -2.455172,-1.713053c-1.8514,-1.057943 -4.150865,-2.092828 -6.226603,-3.119168c-0.055203,-1.105414 -0.33827,-2.367825 -1.018406,-3.455946c-0.760565,-1.216905 -2.077433,-2.185736 -3.908487,-2.185736z" fill="#0000ff"/>
  </g>
 </g>
</svg>